P1
# CREATOR: GIMP PNM Filter Version 1.1
128 128
1111111111111111111111111111111111111111111111111111111111111111111111
1111111111111111111111111111111111111111111111110000000000111111111111
1111111111111111111111111111111111111111111111111111111111111111111111
1111111111111111111111111111111111100000000000111111111111111111111111
1111111111111111111111111111111111111111111111111111111111111111111111
1111111111111111111111000000000000111111111111111111111111111111111111
1111111111111111111111111111111111111111111111111111111111111111111111
1111111111000000000000111111111111111111111111111111111111111111111111
1111111111111111111111111111111111111111100000000000000000000000000000
0000000000111111111111111111111111111111111111111111111111111111111111
1111111111111111111111111111000000000000000000000000000000000000000011
1111111111111111111111111111101000000000000000000000000000000000000000
0000000000000000000000000000000000000000000000000000000011111111111111
1111111111111000000000000000000000000000000000000000000000000000000000
0000000000000000000000000000000000000000000011111111111111111111111000
0000000000000000000000000000000000000000000000000000000000000000000000
0000000000000000000000000000000011111111111111111111110000000000000000
0000000000000000000000000000000000000000000000000000000000000000000000
0000000000000000000011111111111111111110000000000000000000000000000000
0000000000000000000000000000000000000000000000000000000000000000000000
0000000011111111111111111100000000000000000000000000000000000000000000
0000000000000000000000000000000000000000000000000000000000000000111111
1111111111111000000000000000000000000000000000000000000000000000000000
0000000000000000000000000000000000000000000000000001111111111111111110
0000000000000000000000000000000000000000000000000000000000000000000000
0000000000000000000000000000000000000001111111111111111100000000000000
0000000000010101010001010101000001010101010100000100000000000000000000
0000000000000000000000000001111111111111111100000000000000000000001111
1111110001111111110001111111111110000111000000000000000000000000000000
0000000000000001111111111111111000000000000000000000001111111111000011
1111100001111111111111000111000000000000000000000000000000000000000000
0001111111111111110000000000000000011100001111111111100001110000000011
1111111111000111000000000000000000000000000000000000000000000111111111
1111100000000000000001111100000010011111100000000000000000111111111000
0111000000000000000000000000000000000000000000000111111111111100000000
0000000011111100000000000111000000000000000000011111111000011100000000
0000000000000000000000000000000000000111111111111100000000000000001111
1110000000000000000000000000010000001111110000011100000000000000000000
0000000000000000000000000111111111111000000000000000001111111000000000
0000000000000000011100000100000000111100000000000000000000000000000000
0000000000000111111111111000000000000000001111111100000000000000000110
0000011100000000000011111110000000000000000000000000000000000000000000
0111111111110000000000000000000011111100000011110000111111000011111000
0000000011111110000000000000000000000000000000000000000000011111111111
0000000000000000000001111110000000011111111111101111110000000000000111
1110000000000000000000000000000000000000000000011111111110000000000000
0000000000111111000000000111111111111111110000000000000111111000000000
0000000000000000000000000000000000011111111110000000000001100000000001
1111000000000001111111111111110000001100000011111000000000000000000000
0000000000000000000000011111111110000000000011110000000001110000000000
0000111111000000000000111111000011111100000000000000000000000000000000
0000000000011111111110000000000111111000000000000000011110000000110000
0000000000011111100001110000000000000000000000000000000000000000000001
1111111100000000000111111100000000000000111111100000000000001000000000
1111110001000000000000000000000000000000000000000000000001111111110000
0000000111111100000000000001111111111000000000111000000000011111000000
0000000000000000000000000000000000000000000001111111110000000000111111
1110000000000111111111111000000001110000000000011111000000000000000000
0000000000000000000000000000000001111111110000000000111111111100000001
1111111111111100000001110000000000001111000001111100000000000000000000
0000000000000000000001111111110000000000111111111100000011111111110111
1110000011110000000100001111000001111100000000000000000000000000000000
0000000001111111110000000001111111111110000001111111000000111000001111
0000000100000111000011111110000000000000000000000000000000000000000111
1111110000000001111111111110000001111110000000111100001111100000011000
0111000011111111000000000000000000000000000000000000000111111111000000
0001111111111111000000111110000000011100000111110001111000011000001111
1111000000000000000000000000000000000000000111111111000000000111111000
1111000000011100000000011100000111111111111000011000001111111000000000
0000000000000000000000000000000111111111000000000111110000011100000001
1110000000011100000111111111110000000000011111110000000000000000000000
0000000000000000001111111111000000000111100000001110000000111000000001
1110000111111111000000000000111111110000000000000000000000000000000000
0000011111111111000000000111100000000110000000010000000011111000011111
1000000000000000111111000000000000000000000000000000000000000011111111
1111000000000111100000000111000000000000000111111000000000000000000011
0000111010000000000000000000000000000000000000000011111111111100000000
0111000011000111000000000000111111111100000000000000000010000000000000
0000000000000000000000000000000000000011111111111100000000011000000100
0011100000000000111111111110000000000000000001000000000000000000001100
0000000000000000000000000011111111111100000000000000000110001110000000
0000011111111110000000000000000001000000000000000000011111000000000000
0000000000000011111111111100000000000001000110001100000000000000001111
1110000000011100000001110000000000000000111111110000000000000000000000
0011111111111100000000000010000110001100000000000000000001010000000001
1100000001111100000000000001111111111110000000000000000000001111111111
1100000000011111001111001000010000000000000000000000000001111000001111
1000000000000011111111111111000000000000000000001111111111110000000001
1110001111000000111000000000000000000000000000111110111111000000000000
0111101011111110000011111110000000001111111111110000000001111000111100
0000111110000000000000000000000000001111111110000000000000010000000001
1110000011111110000000001111111111110000000001111000111110000011111110
0000000000000011110000000111111100000000000000000000000000111000001111
1110000000001111111111110000000001111001111110000011111111111000000000
0001111100000011111000000000000000000000000000011000000111111000000000
1111111111110000000001110000111111000011111111111000000000000011111100
0001110000000000000011000000110000001100000111111000000000111111111111
0000000001100000111111000001111111100000000000000000111110000000000000
0000001111000011110000000110000111111000000000111111111111000000000100
0000111111100001111111000001111000000000011111000000000000000001111100
0111100000000111000011111000000000111111111111000000000110000000111000
0001111110000011111110000000001111100000000000000011111100011110000000
0011000011111000000000111111111111000000000110000000000000000011110000
0111111111100000000111100000000000000111111000011100000000001100001111
1000000000111111111111000000000111000000000000000001110000011111111111
0000000011100000000000001111111000011110000000001100001111100000000011
1111111111000000000111111110000000000000110000111111111111100000000000
0000000000001111111000011111000010001100001111100000000011111111111100
0000000001111111000000000001110000111010111111100000000000000000000000
1111111000001111111100001100001111100000000011111111111100000000000001
1111000000000001110000000000000111110000000000000000000000111111110000
1111111000000100001111100000000011111111111100000000000000111100000100
0001111000000000000011110000000000000000000000111111110000001111000000
0000001111100000000011111111111100000000000000001000001111111111000000
0000000001111000000000000000011000111111111000000000000000000000011110
0000000011111111111100000000011100000000001111111110000000111100000111
1000000000000000111000011111110000000000100000000000001110000000001111
1111111100000000011110000000000000000000000011111111000011100000000000
0001111000000101000000001111111110000000000110000000001111111111110000
0000011111000000000000000000000011111111000011000000000000000011110000
0000000000111111011110000110000000000000001111111111110000000001111110
0000000000111110000001111111100000000000000000000011111000000000000011
1100000100001111100000000000001111111111110000000001111110000100000111
1111000001111111100000000000000000000001111100000000000011100000000000
0111110000000000001111111111110000000001111110001100001101111110000111
1111100000000000000000000000111111110111100001100000000000011111110000
0000001111111111110000000001111110001100001000011111000011111110000000
0000000000000000111111111111000011100000000000001101111000000000111111
1111110000000001111110001110000000001111000111111110000000000000100000
0000011111111111000001110000000000000000011000000000111111111111000000
0001111110001110000000001111000111111100000000000001110000000000111111
1111000011111000000000000000001000000000111111111111000000000111111000
1110000000001110000111110000000000000000110000000000001111111000001111
1100001111100000001000000000111111111111000000000111111000111100000000
1110000111100000000000000000011000000000000011100000011111110000111111
0000001000000000111111111111000000000111111000011110000001110000011100
0000000000001000001110000000000000000001111111110000111111100000100000
0000111111111111000000000111111100001111000001100000011100000000000001
1100000111000000000000000011111111110000001111100001100000000011111111
1111000000000111111100001111100000000000000000000000000011111000000111
0000000000000011111111111000001111000011100000000011111111111100000000
0111111110000111111100001100000000000000000111111100000001100000000000
0000001111111000000111100011100000000011111111111100000000011111111000
1111111111111110000000000000001111111111000000000000000000000000001111
1000000011000111100000000011111111111100000000000010110000011111111111
1110000000000000011111000111100000000000000000000000000011000000001100
0111100000000011111111111100000000000000000000111111111111110000000000
0001111100000011110000000000000000000000000001000100001100011100000000
0011111111111100000000000000000000001111111111100000000000001111110000
0001110000000001110000000000000000001100000100000000000000001111111111
1100000000000000000000000011111111000000000000000111110000000111000000
0011111111000000000000001100001100000000000000001111111111110000000000
0000000000000000111110000000000000000001100000000000000000011111111111
0000000000001110000100000000000000001111111111110000000000000000000000
0000001100000000000000000000110000000000000000001111111111100000000000
0110000100000110000000001111111111110000000000000000000000000000000000
0000000000010000011000000000000000000111111111100000000000001100000000
1110000000001111111111110000000000000000000000000000000000000000010111
1000010000000000000000000011111100000000000000001100000000111000000000
1111111111110000000000000000000000000000000000000000111111000000000000
0001111111000011110000000010000000000110000001111000000000111111111110
0000000000000000000000000000000000000001111110000000000000111111111100
0011110000000011100000000011000001111000000000111111111100000000000000
0000000000000000000000000011111110000010000011111111111100000111000000
0011110000000011110111111000000000111111111000000000000000000000000000
0000000000000111111100000110000011111111111100000111000000001111000000
0011111111111000000000111111111000000000000000000000000000000000000000
1111111100001110000011100001111100000111000000001111100000000111111111
1000000000111111111000000000000000000000000000000000000000011111100000
1110000011000000111110000111100000011111110000000111111111100000000011
1111111000000000000000000000000000000000000000001111100000111100001000
0000011110000111100000111111110000000111111111100000000011111111100000
0000000000000000000000000000000000000111100001111100000000000001110000
0011111111111111110000000011111111100000000011111111100000000000000000
0000000000000000000000000111000000111110000000000001100000000111111111
1111110000000011111111000000000011111111100000000000000000000000000000
0000000000000000000000111110000000000011000000000111111111111000000000
0011111111000000000011111111100000000000000000000000000000000000000000
0000000000111111000000000010000000000011111111100000000000000111111100
0000000011111111100000000000000000000000000000000000000000000000110001
1111110000000000000000000000111111000000000000000011111000000000001111
1111100000000000000000000000000000000000000000000011110000111111000000
0000000001100000000111000001000000000001110000000000011111111110000000
0000000000000000000000000000000000000111110000011111000001000001111111
0000000000000111100000000000000000000000011111111110000000000000000000
0000000000000000000000000011111000000100000011111111111111110000000000
1111110000000000000000000000011111111110000000000000000000000000000000
0000000000000011111100000000000011111111111111111110000000111111110000
0000000000000000011111111110000000000000000000000000000000000000000000
0011111100000000000111111100111111111111110000011111111000000000000000
0000111111111110000000000000000000000000000000000000000000001111111000
0000000111110000011110000000111000001111111100000000000000000011111111
1110000000000000000000000000000000000000000000000111110000000000001111
0000001100000000000000001111111000000000000000000111111111111000000000
0000000000000000000000000000000000001111100000111100000111000000000000
0000000000000111111100000000000000000111111111111000000000000000000000
0000000000000000000000001111000011111110000000000000000000001000000000
0111111000000000000000001111111111111000000000000000000000000000000000
0000000000000111000111111111000000000000000011111100000000001111100000
0000000000001111111111111000000000000000000000000000000000000000000000
0110000111111111100000000000000001111111101100001111000000000000000001
1111111111111000000000000000000000000000000000000000000000011000111111
1111111100000101110000111111111100000110000000000000000011111111111111
1000000000000000000000000000000000000000000000011100011111111111110001
1111111000011111111110000000000000000000000111111111111111100000000000
0000000000000000000000000000000000011000011111111111110001111111100001
1111111110000000000000000000000111111111111111100000000000000000000000
0000000000000000000000000000000000000000000000000000000000000000000000
0000000000000000001111111111111111100000000000000000000000000000000000
0000000000000000000000000000000000000000000000000000000000000000000000
0000111111111111111111100000000000000000000000000000000000000000000000
0000000000000000000000000000000000000000000000000000000000000111111111
1111111100000000000000000000000000000000000000000000000000000000000000
0000000000000000000000000000000000000000000000001111111111111111110000
0000000000000000000000000000000000000000000000000000000000000000000000
0000000000000000000000000000000000111111111111111111110000000000000000
0000000000000000000000000000000000000000000000000000000000000000000000
0000000000000000000001111111111111111111110000000000000000000000000000
0000000000000000000000000000000000000000000000000000000000000000000000
0000001111111111111111111111110000000000000000000000000000000000000000
0000000000000000000000000000000000000000000000000000000000000111111111
1111111111111111110000000000000000000000000000000000000000000001010101
0101010101010101010101010101010101010101010101111111111111111111111111
1111110000000000000000000000000000000000000000111111111111111111111111
1111111111111111111111111111111111111111111111111111111111111111000000
0000000000000000000000000000000001111111111111111111111111111111111111
1111111111111111111111111111111111111111111111111111000000000000011111
1111111111111111111111111111111111111111111111111111111111111111111111
1111111111111111111111111111111111111111000000000000111111111111111111
1111111111111111111111111111111111111111111111111111111111111111111111
1111111111111111111111111111000000000000111111111111111111111111111111
1111111111111111111111111111111111111111111111111111111111111111111111
1111111111111111000000000001111111111111111111111111111111111111111111
1111111111111111111111111111111111111111111111111111111111111111111111
1111