P1
# CREATOR: GIMP PNM Filter Version 1.1
20 20
1111111111111111110011100000000000000000110000100010000000011000100000
0010000001100100110000000000001011010110101000000110000001000000000001
1001000000100001000110010101010000100101100101001000100001011010000100
0100100001101000000000101010011000110001000010000110000000000010000001
1000000110010010110100000000100011000001100000000010000100010000000001
00010000110000000000000000011100111111111111111111