P1
# CREATOR: GIMP PNM Filter Version 1.1
64 64
1111111111111111111111111111111111111111111111111111111111100000111111
1111111111111111111111111111111111111111111111111111000000111111111111
1111111111111111111111111111111110000000000000000000111111111111111000
0000000000000000000000000000000000000000000000111111111110000000000000
0000000000000000000000000000000000000000111111111100000000000000000000
0000000000000000000000000000000000111111110000000000000000000000000000
0000000000000000000000000011111111100000000000011110011110011111000100
0000000000000000000011111111000000000100111110011000111111100100000000
0000000000000011111110000000011100000110000000001111100100000000000000
0000000011111110000000011110000000000000100110001100000000000000000000
0011111100000000001110001000011001100000011100000000000000000000001111
1100000000000111000011111111100000011110000000000000000000001111100000
0110000010000000111101000011001110000000000000000000001111100000011000
0000011100000000000111100100000000000000000000001111100000111100000011
1111000010000001100000000000000000000000001111100000111110001111111100
0110000001100111000000000000000000001111100000111110001111000110011000
1001100111100000000000000000001111100001111111000110000110011110100100
0111100000000000000000001111100000110001000010000110011111100000111100
0000000000000000001111100001100001100000000110000100000000111000000000
0000000000011111100000100100100000011111000000000100000000000000000000
0000011111100000000100100000001111100001000010000000011110000000000001
1111100000110110100000000000000001000111000000111111100000000001111110
0000110110001100000000000001111110000001000111000111100001111110000011
0110001111100000011100011100000000000001100111000001111110000110011100
1111100000000110000000000010011000100011100001111110000000011100111100
1110000011100000001110010000010011000001111110000110000000011001111110
0001000000011110110000010011100001111110000011110000001001111111000000
0000011110011010010011000001111110000000110000011000000011000000000001
1110011100000011100001111110000010000011111000100001100000001001111000
0000000001000001111110000011000000000001111001000000001100000001111110
0100100001111110000111100000111001111100000000001110000001100000111000
0001111110000011001001011100111000000000000111111001000000011100000111
1110000111001000001100111000000010000011111001100000000010000111111000
0011101100001101110000000010000001110001110011100000000111111000011110
0110011000100000001001100000000111110011100010000111111000001110011100
0000000000011100010000000011110001100100000111111000001110011111111000
0001110110000000000000110000100110000111111000000000001111110000001110
0011000000000000000100101000000111111000000000000011100000000110000000
0011110000000100100000000111111000000000000000000000000010000000001111
1100000010000100000111111000000000000000000001110000000101000110000000
0010000100000111110000000000000000000011110000001111100110000110000100
1110000111110000000000000000000111100110011011100110000110000111110000
0111110000000000000000000011100110010001100011001111000011110000011111
0000000000000000000011000110000001100011111111000011110000011111000000
0000000000000000000111000001000001111100000011110000011111000000000000
0000000000110011100000000000011000000001100000011110000000000000000000
0000110011100101111110000011100000000000011111000000000000000000000011
1000000111111111100011110000000000111111000000000000000000000011100000
0110001000010001111000000000111111000000000000000000000011001110001000
0000000001111000000001111111000000000000000000000011001111000000001111
0000110000000001111111000000000000000000000001011111110011100111110010
0000000011111110000000000000000000000001001010100010100010100000000000
0111111110000000000000000000000000000000000000000000000000000000111111
1100000000000000000000000000000000000000000000000000000001111111110000
0000000000000000000000000000000000000000000000000111111111110000000000
0000000000000000000000000000000000000001111111111111110000000000000000
0000111111111111111111111111111111111111111111110000001111111111111111
1111111111111111111111111111111111111111110000001111111111111111111111
111111111111111111111111111111111111