P1
# CREATOR: GIMP PNM Filter Version 1.1
8 8
00000000
00110000
00110000
00000100
00011100
00000000
00000000
00000000
